<svg width="1600" height="900" viewBox="0 0 1600 900" xmlns="http://www.w3.org/2000/svg">
  <!-- Background -->
  <rect width="1600" height="900" fill="#f8fafc"/>
  
  <!-- Edges -->
  <line x1="800" y1="250" x2="600" y2="450" stroke="#cbd5e1" stroke-width="2"/>
  <line x1="800" y1="250" x2="1000" y2="450" stroke="#cbd5e1" stroke-width="2"/>
  <line x1="600" y1="450" x2="500" y2="650" stroke="#cbd5e1" stroke-width="2"/>
  <line x1="600" y1="450" x2="800" y2="650" stroke="#cbd5e1" stroke-width="2"/>
  <line x1="1000" y1="450" x2="800" y2="650" stroke="#cbd5e1" stroke-width="2"/>
  <line x1="1000" y1="450" x2="1100" y2="650" stroke="#cbd5e1" stroke-width="2"/>
  <line x1="600" y1="450" x2="400" y2="450" stroke="#cbd5e1" stroke-width="2"/>
  <line x1="1000" y1="450" x2="1200" y2="450" stroke="#cbd5e1" stroke-width="2"/>
  <line x1="500" y1="650" x2="800" y2="650" stroke="#cbd5e1" stroke-width="2"/>
  <line x1="800" y1="650" x2="1100" y2="650" stroke="#cbd5e1" stroke-width="2"/>
  
  <!-- Node 1 -->
  <circle cx="800" cy="250" r="25" fill="#3b82f6" stroke="#2563eb" stroke-width="3"/>
  
  <!-- Node 2 -->
  <circle cx="600" cy="450" r="25" fill="#3b82f6" stroke="#2563eb" stroke-width="3"/>
  
  <!-- Node 3 (Highlighted) -->
  <circle cx="1000" cy="450" r="35" fill="#fef3c7" opacity="0.5"/>
  <circle cx="1000" cy="450" r="25" fill="#fbbf24" stroke="#f59e0b" stroke-width="3"/>
  
  <!-- Robot icon inside node 3 -->
  <g transform="translate(1000, 450) scale(1.5)">
    <rect x="-8" y="-10" width="16" height="14" rx="2" fill="none" stroke="white" stroke-width="1.5"/>
    <circle cx="-4" cy="-5" r="1.5" fill="white"/>
    <circle cx="4" cy="-5" r="1.5" fill="white"/>
    <rect x="-6" y="1" width="12" height="1.5" fill="white"/>
    <line x1="-8" y1="-12" x2="-8" y2="-10" stroke="white" stroke-width="1.5"/>
    <line x1="8" y1="-12" x2="8" y2="-10" stroke="white" stroke-width="1.5"/>
    <line x1="-8" y1="4" x2="-8" y2="8" stroke="white" stroke-width="1.5"/>
    <line x1="8" y1="4" x2="8" y2="8" stroke="white" stroke-width="1.5"/>
  </g>
  
  <!-- Node 4 -->
  <circle cx="500" cy="650" r="25" fill="#3b82f6" stroke="#2563eb" stroke-width="3"/>
  
  <!-- Node 5 -->
  <circle cx="800" cy="650" r="25" fill="#3b82f6" stroke="#2563eb" stroke-width="3"/>
  
  <!-- Node 6 -->
  <circle cx="1100" cy="650" r="25" fill="#3b82f6" stroke="#2563eb" stroke-width="3"/>
  
  <!-- Node 7 -->
  <circle cx="400" cy="450" r="25" fill="#3b82f6" stroke="#2563eb" stroke-width="3"/>
  
  <!-- Node 8 -->
  <circle cx="1200" cy="450" r="25" fill="#3b82f6" stroke="#2563eb" stroke-width="3"/>
</svg>
