<svg width="2933" height="1655" xmlns="http://www.w3.org/2000/svg" xmlns:xlink="http://www.w3.org/1999/xlink" xml:space="preserve" overflow="hidden"><defs><linearGradient x1="2200" y1="2063" x2="2200" y2="413" gradientUnits="userSpaceOnUse" spreadMethod="reflect" id="fill0"><stop offset="0" stop-color="#13284B" stop-opacity="1"/><stop offset="0.3" stop-color="#13284B" stop-opacity="0.8"/><stop offset="0.7" stop-color="#13284B" stop-opacity="0.8"/><stop offset="1" stop-color="#13284B" stop-opacity="1"/></linearGradient></defs><g transform="translate(-733 -412)"><g><rect x="735" y="413" width="2930" height="1650" fill="url(#fill0)"/><path d="M2035.5 880.167C2035.5 858.812 2052.81 841.5 2074.17 841.5L2326.83 841.5C2348.19 841.5 2365.5 858.812 2365.5 880.167L2365.5 1034.83C2365.5 1056.19 2348.19 1073.5 2326.83 1073.5L2074.17 1073.5C2052.81 1073.5 2035.5 1056.19 2035.5 1034.83Z" stroke="#BFBFBF" stroke-width="11.4583" stroke-linecap="butt" stroke-linejoin="miter" stroke-miterlimit="8" stroke-opacity="1" fill="none" fill-rule="evenodd"/><path d="M1029.5 1375C1029.5 1353.74 1046.74 1336.5 1068 1336.5L1321 1336.5C1342.26 1336.5 1359.5 1353.74 1359.5 1375L1359.5 1529C1359.5 1550.26 1342.26 1567.5 1321 1567.5L1068 1567.5C1046.74 1567.5 1029.5 1550.26 1029.5 1529Z" stroke="#BFBFBF" stroke-width="11.4583" stroke-linecap="butt" stroke-linejoin="miter" stroke-miterlimit="8" stroke-opacity="1" fill="none" fill-rule="evenodd"/><path d="M1532.5 1375C1532.5 1353.74 1549.74 1336.5 1571 1336.5L1824 1336.5C1845.26 1336.5 1862.5 1353.74 1862.5 1375L1862.5 1529C1862.5 1550.26 1845.26 1567.5 1824 1567.5L1571 1567.5C1549.74 1567.5 1532.5 1550.26 1532.5 1529Z" stroke="#BFBFBF" stroke-width="11.4583" stroke-linecap="butt" stroke-linejoin="miter" stroke-miterlimit="8" stroke-opacity="1" fill="none" fill-rule="evenodd"/><path d="M2035.5 1375C2035.5 1353.74 2052.74 1336.5 2074 1336.5L2327 1336.5C2348.26 1336.5 2365.5 1353.74 2365.5 1375L2365.5 1529C2365.5 1550.26 2348.26 1567.5 2327 1567.5L2074 1567.5C2052.74 1567.5 2035.5 1550.26 2035.5 1529Z" stroke="#BFBFBF" stroke-width="11.4583" stroke-linecap="butt" stroke-linejoin="miter" stroke-miterlimit="8" stroke-opacity="1" fill="none" fill-rule="evenodd"/><path d="M2538.5 1375C2538.5 1353.74 2555.74 1336.5 2577 1336.5L2830 1336.5C2851.26 1336.5 2868.5 1353.74 2868.5 1375L2868.5 1529C2868.5 1550.26 2851.26 1567.5 2830 1567.5L2577 1567.5C2555.74 1567.5 2538.5 1550.26 2538.5 1529Z" stroke="#BFBFBF" stroke-width="11.4583" stroke-linecap="butt" stroke-linejoin="miter" stroke-miterlimit="8" stroke-opacity="1" fill="none" fill-rule="evenodd"/><path d="M3041.5 1375C3041.5 1353.74 3058.74 1336.5 3080 1336.5L3333 1336.5C3354.26 1336.5 3371.5 1353.74 3371.5 1375L3371.5 1529C3371.5 1550.26 3354.26 1567.5 3333 1567.5L3080 1567.5C3058.74 1567.5 3041.5 1550.26 3041.5 1529Z" stroke="#BFBFBF" stroke-width="11.4583" stroke-linecap="butt" stroke-linejoin="miter" stroke-miterlimit="8" stroke-opacity="1" fill="none" fill-rule="evenodd"/><path d="M2206.57 1073.5 2206.57 1210.84 1194.5 1210.84 1200.23 1205.11 1200.23 1285.15 1188.77 1285.15 1188.77 1199.38 2200.84 1199.38 2195.12 1205.11 2195.12 1073.5ZM1223.15 1279.42 1194.5 1336.71 1165.85 1279.42Z" fill="#BFBFBF" fill-rule="nonzero" fill-opacity="1"/><path d="M2206.4 1073.5 2206.4 1210.84 1697.5 1210.84 1703.23 1205.11 1703.23 1285.15 1691.77 1285.15 1691.77 1199.38 2200.67 1199.38 2194.94 1205.11 2194.94 1073.5ZM1726.15 1279.42 1697.5 1336.71 1668.85 1279.42Z" fill="#BFBFBF" fill-rule="nonzero" fill-opacity="1"/><path d="M0-5.72917 137.336-5.72917 137.336 503.172 131.607 497.443 211.651 497.443 211.651 508.901 125.878 508.901 125.878 0 131.607 5.72917 0 5.72917ZM205.922 474.526 263.213 503.172 205.922 531.818Z" fill="#BFBFBF" fill-rule="nonzero" fill-opacity="1" transform="matrix(1.83697e-16 1 1 -1.83697e-16 2200.5 1073.5)"/><path d="M0-5.72917 137.337-5.72917 137.337 1006.34 131.608 1000.61 211.651 1000.61 211.651 1012.07 125.878 1012.07 125.878 0 131.608 5.72917 0 5.72917ZM205.922 977.698 263.214 1006.34 205.922 1034.99Z" fill="#BFBFBF" fill-rule="nonzero" fill-opacity="1" transform="matrix(1.83697e-16 1 1 -1.83697e-16 2200.5 1073.5)"/><path d="M2206.23 1073.5 2206.23 1285.15 2194.77 1285.15 2194.77 1073.5ZM2229.15 1279.42 2200.5 1336.71 2171.85 1279.42Z" fill="#BFBFBF" fill-rule="nonzero" fill-opacity="1"/></g></g></svg>