<?xml version="1.0" encoding="UTF-8"?>
<svg id="Layer_1" data-name="Layer 1" xmlns="http://www.w3.org/2000/svg" viewBox="0 0 119.68 106">
  <defs>
    <style>
      .cls-1 {
        stroke: #c84113;
      }

      .cls-1, .cls-2 {
        fill: none;
        opacity: .6;
        stroke-linecap: round;
        stroke-miterlimit: 10;
        stroke-width: 3px;
      }

      .cls-2 {
        stroke: #13294b;
      }

      .cls-3 {
        opacity: .8;
      }

      .cls-4 {
        fill: #c84113;
      }

      .cls-5 {
        fill: #13294b;
      }
    </style>
  </defs>
  <line class="cls-2" x1="50.01" y1="15.81" x2="52.57" y2="18.38"/>
  <g class="cls-3">
    <circle class="cls-5" cx="42.74" cy="8.55" r="8.55"/>
  </g>
  <g class="cls-3">
    <circle class="cls-5" cx="25.65" cy="25.65" r="8.55"/>
  </g>
  <g class="cls-3">
    <circle class="cls-5" cx="59.84" cy="25.65" r="8.55"/>
  </g>
  <g class="cls-3">
    <circle class="cls-5" cx="8.55" cy="42.74" r="8.55"/>
  </g>
  <line class="cls-2" x1="35.48" y1="15.81" x2="32.91" y2="18.38"/>
  <g class="cls-3">
    <circle class="cls-5" cx="76.94" cy="42.74" r="8.55"/>
  </g>
  <line class="cls-2" x1="18.38" y1="32.91" x2="15.81" y2="35.48"/>
  <line class="cls-2" x1="67.1" y1="32.91" x2="69.67" y2="35.48"/>
  <g>
    <line class="cls-2" x1="50.01" y1="90.19" x2="52.57" y2="87.62"/>
    <g class="cls-3">
      <circle class="cls-5" cx="42.74" cy="97.45" r="8.55"/>
    </g>
    <g class="cls-3">
      <circle class="cls-5" cx="25.65" cy="80.35" r="8.55"/>
    </g>
    <g class="cls-3">
      <circle class="cls-5" cx="59.84" cy="80.35" r="8.55"/>
    </g>
    <g class="cls-3">
      <circle class="cls-5" cx="8.55" cy="63.26" r="8.55"/>
    </g>
    <line class="cls-2" x1="35.48" y1="90.19" x2="32.91" y2="87.62"/>
    <g class="cls-3">
      <circle class="cls-5" cx="76.94" cy="63.26" r="8.55"/>
    </g>
    <line class="cls-2" x1="18.38" y1="73.09" x2="15.81" y2="70.52"/>
    <line class="cls-2" x1="67.1" y1="73.09" x2="69.67" y2="70.52"/>
  </g>
  <line class="cls-1" x1="84.2" y1="15.81" x2="86.77" y2="18.38"/>
  <g class="cls-3">
    <circle class="cls-4" cx="76.94" cy="8.55" r="8.55"/>
  </g>
  <g class="cls-3">
    <circle class="cls-4" cx="94.03" cy="25.65" r="8.55"/>
  </g>
  <line class="cls-1" x1="69.67" y1="15.81" x2="67.1" y2="18.38"/>
  <g class="cls-3">
    <circle class="cls-4" cx="111.13" cy="42.74" r="8.55"/>
  </g>
  <line class="cls-1" x1="101.3" y1="32.91" x2="103.86" y2="35.48"/>
  <line class="cls-1" x1="84.2" y1="90.19" x2="86.77" y2="87.62"/>
  <g class="cls-3">
    <circle class="cls-4" cx="76.94" cy="97.45" r="8.55"/>
  </g>
  <g class="cls-3">
    <circle class="cls-4" cx="94.03" cy="80.35" r="8.55"/>
  </g>
  <line class="cls-1" x1="69.67" y1="90.19" x2="67.1" y2="87.62"/>
  <g class="cls-3">
    <circle class="cls-4" cx="111.13" cy="63.26" r="8.55"/>
  </g>
  <line class="cls-1" x1="101.3" y1="73.09" x2="103.86" y2="70.52"/>
</svg>